# xmcd
#
# Track frame offsets: 
#        150
#        5273
#        20138
#        37216
#        53686
#        68236
#        84286
#        99826
#        113304
#        128357
#        140132
#        155095
#        170050
#        186790
#        203470
#        220990
#        238218
#        252393
#
# Disc length: 3389 seconds
#
# Revision: 0
# Processed by: cddbd v1.5.2PL0 Copyright (c) Steve Scherf et al.
# Submitted via: ExactAudioCopyFreeDBPlugin 1.0
#
DISCID=f40d3b12
DTITLE=Alpa Gun - Geboren um zu sterben (Premium Edition)
DYEAR=2014
DGENRE=Rap
TTITLE0=Intro
TTITLE1=Nie verstanden
TTITLE2=Alper Abi
TTITLE3=Neu Beginn
TTITLE4=Es war nicht immer so
TTITLE5=Geboren um zu sterben
TTITLE6=Nicht zu spät (feat. Mehrzad Marashi)
TTITLE7=Ich and meine Glatze
TTITLE8=Für dich Vater
TTITLE9=Wer bist du lan
TTITLE10=Macho Türke (feat. Mustafa Alin)
TTITLE11=Geht dich nichts
TTITLE12=Vorbei
TTITLE13=Schlampe (feat. Isi)
TTITLE14=Hab Geduld (feat. Yasha)
TTITLE15=Lass mal (feat. Du Maroc and Kurdo)
TTITLE16=Aufstand (feat. Nate57)
TTITLE17=Outro
EXTD=
EXTT0=
EXTT1=
EXTT2=
EXTT3=
EXTT4=
EXTT5=
EXTT6=
EXTT7=
EXTT8=
EXTT9=
EXTT10=
EXTT11=
EXTT12=
EXTT13=
EXTT14=
EXTT15=
EXTT16=
EXTT17=
PLAYORDER=
